<svg xmlns="http://www.w3.org/2000/svg" viewBox="0 0 64 64"><defs><linearGradient id="a" x1="0" y1="0" x2="1" y2="1"><stop stop-color="#5cff9a"/><stop offset="1" stop-color="#c4ffdc"/></linearGradient></defs><rect width="64" height="64" rx="16" fill="#07100b"/><path d="M19 8h20l17 17v20L39 62H19L2 45V25z" fill="#08100c" stroke="url(#a)" stroke-width="3" transform="translate(3 -3)"/><path d="M39 18c-9-3-18 1-22 9-4 9 0 20 9 24 7 3 14 2 19-2l-5-7c-4 2-8 2-11 0-5-2-7-8-5-13 3-6 9-8 15-6 2 1 4 3 5 5h8c-2-5-6-8-13-10z" fill="url(#a)"/><path d="M36 33h18v6H36z" fill="#f4fff8"/><path d="M48 39h7v7h-7z" fill="#5cff9a"/></svg>